<?xml version="1.0" encoding="utf-8"?>
<!-- Generator: Adobe Illustrator 16.0.0, SVG Export Plug-In . SVG Version: 6.00 Build 0)  -->
<!DOCTYPE svg PUBLIC "-//W3C//DTD SVG 1.1//EN" "http://www.w3.org/Graphics/SVG/1.1/DTD/svg11.dtd">
<svg version="1.1" id="Layer_1" xmlns="http://www.w3.org/2000/svg" xmlns:xlink="http://www.w3.org/1999/xlink" x="0px" y="0px"
	 width="142px" height="47.313px" viewBox="0 0 142 47.313" enable-background="new 0 0 142 47.313" xml:space="preserve">
<g display="none">
	<path display="inline" fill="#6A21F5" d="M58.984,29.334c0,0.188-0.068,0.352-0.203,0.484c-0.136,0.137-0.298,0.203-0.486,0.203
		c-0.307,0-0.524-0.142-0.654-0.424l-1.184-2.863h-6.839L48.435,29.6c-0.095,0.282-0.307,0.424-0.636,0.424
		c-0.201,0-0.362-0.066-0.486-0.203c-0.124-0.135-0.186-0.297-0.186-0.484c0-0.117,0.018-0.218,0.053-0.301L52.375,16.7
		c0.129-0.318,0.354-0.479,0.671-0.479c0.318,0,0.536,0.159,0.654,0.479l5.213,12.353C58.961,29.135,58.984,29.229,58.984,29.334z
		 M50.114,25.553h5.867l-2.934-7.086L50.114,25.553z"/>
	<path display="inline" fill="#6A21F5" d="M72.83,20.746c0.535,0.33,0.953,0.798,1.254,1.403c0.301,0.607,0.451,1.313,0.451,2.112
		v5.089c0,0.201-0.063,0.363-0.186,0.486c-0.125,0.123-0.287,0.186-0.486,0.186c-0.201,0-0.365-0.063-0.496-0.186
		c-0.129-0.123-0.193-0.285-0.193-0.486v-5.089c0-0.836-0.215-1.499-0.645-1.988c-0.432-0.486-0.994-0.731-1.688-0.731
		c-0.742,0-1.344,0.247-1.803,0.742c-0.459,0.493-0.684,1.143-0.672,1.941v0.036v5.089c0,0.201-0.062,0.363-0.186,0.486
		c-0.123,0.123-0.285,0.186-0.486,0.186c-0.199,0-0.365-0.063-0.494-0.186c-0.13-0.123-0.194-0.285-0.194-0.486v-5.089
		c0-0.836-0.216-1.499-0.646-1.988c-0.43-0.486-0.992-0.731-1.688-0.731c-0.73,0-1.331,0.241-1.802,0.724
		c-0.471,0.483-0.707,1.104-0.707,1.855v5.229c0,0.201-0.062,0.363-0.186,0.486s-0.286,0.186-0.486,0.186
		c-0.201,0-0.366-0.063-0.495-0.186c-0.13-0.123-0.194-0.285-0.194-0.486v-8.305c0-0.2,0.064-0.365,0.194-0.495
		c0.129-0.129,0.294-0.194,0.495-0.194c0.2,0,0.362,0.065,0.486,0.194c0.124,0.13,0.186,0.294,0.186,0.495v0.389
		c0.33-0.376,0.721-0.668,1.175-0.875s0.946-0.309,1.476-0.309c0.647,0,1.231,0.146,1.749,0.439c0.52,0.295,0.932,0.707,1.237,1.237
		c0.342-0.53,0.786-0.942,1.335-1.237c0.547-0.294,1.162-0.439,1.846-0.439C71.678,20.251,72.293,20.417,72.83,20.746z"/>
	<path display="inline" fill="#6A21F5" d="M85.021,20.914c0.725,0.43,1.297,1.019,1.715,1.767s0.627,1.582,0.627,2.5
		s-0.215,1.756-0.646,2.51c-0.43,0.754-1.02,1.348-1.768,1.775s-1.582,0.645-2.5,0.645c-0.922,0-1.752-0.215-2.5-0.645
		s-1.34-1.021-1.77-1.775s-0.645-1.591-0.645-2.51v-4.153c0-0.069,0.006-0.124,0.018-0.157v-3.958c0-0.2,0.063-0.365,0.188-0.495
		c0.121-0.129,0.283-0.194,0.484-0.194c0.199,0,0.363,0.065,0.494,0.194c0.129,0.13,0.193,0.295,0.193,0.495v5.177
		c0.412-0.565,0.938-1.01,1.574-1.334c0.635-0.324,1.336-0.486,2.102-0.486C83.488,20.269,84.297,20.484,85.021,20.914z
		 M84.279,28.389c0.549-0.324,0.979-0.766,1.291-1.325c0.312-0.559,0.469-1.187,0.469-1.882S85.883,23.86,85.57,23.3
		c-0.313-0.559-0.742-0.998-1.291-1.316c-0.547-0.316-1.156-0.477-1.828-0.477c-0.932,0-1.723,0.295-2.377,0.884
		s-1.039,1.343-1.158,2.262c0,0.035-0.006,0.065-0.018,0.09c-0.012,0.094-0.02,0.24-0.02,0.44c0,0.695,0.156,1.322,0.471,1.882
		c0.313,0.562,0.736,1.001,1.279,1.325c0.541,0.324,1.146,0.486,1.82,0.486C83.122,28.876,83.732,28.713,84.279,28.389z"/>
	<path display="inline" fill="#6A21F5" d="M96.463,20.878c0.672,0.407,1.193,0.969,1.564,1.688c0.371,0.721,0.557,1.537,0.557,2.456
		c0,0.188-0.059,0.339-0.176,0.45c-0.119,0.113-0.271,0.168-0.461,0.168h-7.139c0.094,0.967,0.471,1.75,1.131,2.353
		c0.66,0.601,1.482,0.899,2.475,0.899c0.424,0,0.852-0.074,1.281-0.221c0.43-0.147,0.771-0.333,1.033-0.559
		c0.15-0.115,0.313-0.177,0.477-0.177c0.131,0,0.26,0.047,0.391,0.144c0.152,0.141,0.229,0.3,0.229,0.477
		c0,0.153-0.064,0.289-0.193,0.406c-0.389,0.33-0.885,0.604-1.483,0.822c-0.603,0.218-1.181,0.324-1.731,0.324
		c-0.942,0-1.785-0.209-2.526-0.627c-0.742-0.418-1.322-1.001-1.74-1.75c-0.418-0.748-0.627-1.592-0.627-2.535
		c0-0.952,0.197-1.805,0.592-2.554c0.396-0.748,0.941-1.331,1.644-1.749c0.701-0.418,1.5-0.627,2.396-0.627
		C95.021,20.269,95.793,20.472,96.463,20.878z M91.922,22.319c-0.588,0.556-0.947,1.284-1.078,2.191h6.469
		c-0.096-0.907-0.424-1.638-0.99-2.191c-0.563-0.554-1.287-0.831-2.174-0.831C93.254,21.488,92.512,21.765,91.922,22.319z"/>
	<path display="inline" fill="#6A21F5" d="M106.422,20.446c0.289,0.131,0.432,0.313,0.432,0.55c0,0.068-0.006,0.124-0.018,0.157
		c-0.047,0.165-0.119,0.277-0.221,0.336c-0.1,0.061-0.238,0.09-0.414,0.09c-0.107,0-0.289-0.014-0.549-0.035
		c-0.094-0.014-0.234-0.02-0.424-0.02c-0.883,0-1.605,0.236-2.164,0.707c-0.563,0.473-0.84,1.084-0.84,1.838v5.283
		c0,0.213-0.061,0.377-0.178,0.495s-0.281,0.177-0.496,0.177c-0.211,0-0.377-0.059-0.492-0.177c-0.117-0.118-0.18-0.282-0.18-0.495
		v-8.323c0-0.212,0.063-0.377,0.18-0.493c0.115-0.118,0.281-0.179,0.492-0.179c0.215,0,0.379,0.061,0.496,0.179
		c0.117,0.116,0.178,0.281,0.178,0.493v0.777c0.342-0.495,0.775-0.877,1.309-1.146c0.529-0.271,1.1-0.406,1.713-0.406
		C105.74,20.251,106.133,20.316,106.422,20.446z"/>
	<path display="inline" fill="#6A21F5" d="M115.592,29.484c-0.865-0.477-1.486-1.122-1.863-1.936
		c-0.047-0.082-0.068-0.176-0.068-0.282c0-0.165,0.063-0.304,0.188-0.415c0.121-0.111,0.291-0.168,0.502-0.168
		c0.143,0,0.273,0.039,0.396,0.115s0.215,0.186,0.271,0.326c0.271,0.528,0.725,0.957,1.354,1.279
		c0.631,0.324,1.361,0.486,2.199,0.486c0.967,0,1.742-0.23,2.332-0.698c0.592-0.466,0.885-1.114,0.885-1.95
		c0-0.742-0.271-1.367-0.82-1.874c-0.549-0.508-1.367-0.831-2.465-0.974c-1.367-0.165-2.441-0.592-3.229-1.281
		c-0.781-0.688-1.174-1.533-1.174-2.534c0-0.707,0.191-1.328,0.574-1.864s0.912-0.948,1.59-1.237s1.445-0.433,2.307-0.433
		c0.932,0,1.748,0.207,2.455,0.619c0.707,0.413,1.264,0.946,1.662,1.606c0.082,0.13,0.123,0.271,0.123,0.424
		c0,0.226-0.104,0.4-0.316,0.53c-0.096,0.047-0.199,0.07-0.318,0.07c-0.129,0-0.25-0.032-0.359-0.099
		c-0.111-0.063-0.203-0.154-0.273-0.272c-0.66-1.036-1.656-1.563-2.986-1.573c-0.955,0-1.709,0.201-2.262,0.603
		c-0.555,0.398-0.832,0.972-0.832,1.714c0,1.378,1.113,2.215,3.34,2.509c1.461,0.212,2.551,0.66,3.27,1.343
		c0.721,0.685,1.078,1.584,1.078,2.704c0,0.824-0.2,1.537-0.602,2.138c-0.4,0.603-0.947,1.06-1.643,1.37
		c-0.695,0.313-1.473,0.468-2.332,0.468C117.451,30.2,116.459,29.961,115.592,29.484z"/>
	<path display="inline" fill="#6A21F5" d="M139.633,16.417c0.131,0.13,0.195,0.295,0.195,0.495v12.422
		c0,0.188-0.064,0.352-0.195,0.484c-0.129,0.137-0.287,0.203-0.477,0.203c-0.199,0-0.367-0.066-0.504-0.203
		c-0.135-0.135-0.203-0.297-0.203-0.484V19.333l-4.912,10.037c-0.141,0.225-0.342,0.336-0.602,0.336
		c-0.293,0-0.506-0.143-0.637-0.426l-4.896-9.788v9.843c0,0.188-0.064,0.352-0.193,0.484c-0.129,0.136-0.295,0.203-0.494,0.203
		c-0.188,0-0.354-0.066-0.484-0.203c-0.135-0.135-0.203-0.297-0.203-0.484V16.912c0-0.2,0.068-0.365,0.203-0.495
		c0.135-0.129,0.297-0.194,0.484-0.194c0.271,0,0.479,0.118,0.617,0.354l5.654,11.237l5.551-11.237
		c0.143-0.235,0.346-0.354,0.615-0.354C139.346,16.222,139.504,16.287,139.633,16.417z"/>
</g>
<g>
	<g>
		<path fill="none" stroke="#6627DB" stroke-width="1.25" stroke-miterlimit="10" d="M16.836,4.608
			c5.92,5.866,5.441,12.241,1.162,18.463c-4.785,6.972-5.458,15.15-0.621,19.825"/>
		<path fill="none" stroke="#6627DB" stroke-width="1.25" stroke-miterlimit="10" d="M16.836,4.608
			c-5.693,7.028-2.631,15.328,1.162,18.463c6.436,5.355,11.553,11.601,8.932,19.825"/>
		<path fill="none" stroke="#6627DB" stroke-width="1.25" stroke-linecap="square" stroke-miterlimit="10" d="M27.472,4.608
			c28.204,23.646,1.052,39.687-5.311,39.687c-6.378,0-33.526-16.039-5.325-39.687"/>
		<path fill="none" stroke="#6627DB" stroke-width="1.25" stroke-miterlimit="10" d="M27.472,4.608
			c-5.909,5.866-5.433,12.241-1.151,18.463c4.772,6.972,5.46,15.15,0.609,19.825"/>
		<path fill="none" stroke="#6627DB" stroke-width="1.25" stroke-linecap="round" stroke-miterlimit="10" d="M27.472,4.608
			c5.703,7.028,2.644,15.328-1.151,18.463c-6.449,5.355-11.552,11.601-8.943,19.825"/>
		<path fill="none" stroke="#6627DB" stroke-width="1.25" stroke-miterlimit="10" d="M23.602,22.495c0,0.801-0.635,1.457-1.44,1.457
			c-0.805,0-1.456-0.656-1.456-1.457c0-0.802,0.65-1.458,1.456-1.458C22.968,21.037,23.602,21.694,23.602,22.495"/>
		<path fill="none" stroke="#6627DB" stroke-width="1.25" stroke-miterlimit="10" d="M23.602,22.495c0,0.801-0.635,1.457-1.44,1.457
			c-0.805,0-1.456-0.656-1.456-1.457c0-0.802,0.65-1.458,1.456-1.458C22.968,21.037,23.602,21.694,23.602,22.495z"/>
	</g>
	<g>
		<path fill="#6627DB" d="M56.858,29.283c0,0.252-0.09,0.467-0.27,0.646c-0.18,0.181-0.402,0.271-0.666,0.271
			c-0.18,0-0.351-0.053-0.513-0.153c-0.162-0.104-0.279-0.243-0.351-0.423l-1.008-2.521h-6.462l-1.026,2.521
			c-0.084,0.18-0.204,0.318-0.36,0.423c-0.156,0.103-0.324,0.153-0.504,0.153c-0.264,0-0.483-0.096-0.657-0.279
			c-0.174-0.187-0.261-0.405-0.261-0.657c0-0.12,0.03-0.258,0.09-0.414l5.058-12.078c0.18-0.42,0.474-0.63,0.882-0.63
			c0.432,0,0.726,0.21,0.882,0.63l5.076,12.114C56.828,29.043,56.858,29.175,56.858,29.283z M48.218,25.557h5.202l-2.574-6.408
			L48.218,25.557z"/>
		<path fill="#6627DB" d="M71.607,21.291c0.644,0.684,0.963,1.638,0.963,2.86V29.3c0,0.264-0.084,0.481-0.252,0.656
			s-0.389,0.262-0.666,0.262c-0.263,0-0.481-0.087-0.655-0.262c-0.174-0.175-0.262-0.395-0.262-0.656v-5.148
			c0-0.73-0.182-1.285-0.549-1.665c-0.365-0.378-0.855-0.565-1.467-0.565c-0.623,0-1.137,0.216-1.539,0.646
			c-0.402,0.434-0.604,0.984-0.604,1.656V29.3c0,0.264-0.084,0.481-0.252,0.656c-0.168,0.175-0.389,0.262-0.666,0.262
			c-0.264,0-0.482-0.087-0.656-0.262S64.74,29.562,64.74,29.3v-5.148c0-0.73-0.182-1.285-0.549-1.665
			c-0.365-0.378-0.855-0.565-1.467-0.565c-0.637,0-1.154,0.216-1.557,0.646c-0.402,0.434-0.604,0.984-0.604,1.656V29.3
			c0,0.264-0.084,0.481-0.252,0.656s-0.391,0.262-0.666,0.262c-0.264,0-0.482-0.087-0.656-0.262
			c-0.174-0.175-0.262-0.395-0.262-0.656v-8.01c0-0.276,0.088-0.498,0.262-0.666c0.174-0.168,0.393-0.252,0.656-0.252
			s0.48,0.081,0.648,0.242s0.258,0.375,0.27,0.64c0.313-0.313,0.684-0.556,1.117-0.729c0.432-0.174,0.898-0.261,1.402-0.261
			c0.613,0,1.162,0.123,1.648,0.369s0.885,0.597,1.197,1.053c0.359-0.442,0.809-0.792,1.35-1.044
			c0.539-0.252,1.139-0.378,1.799-0.378C70.124,20.265,70.966,20.606,71.607,21.291z"/>
		<path fill="#6627DB" d="M83.271,20.931c0.703,0.432,1.254,1.029,1.656,1.791c0.4,0.762,0.604,1.611,0.604,2.547
			c0,0.938-0.217,1.785-0.648,2.548c-0.431,0.764-1.027,1.361-1.791,1.801c-0.762,0.438-1.604,0.655-2.527,0.655
			c-0.926,0-1.763-0.219-2.513-0.655c-0.75-0.438-1.344-1.037-1.78-1.801c-0.438-0.763-0.658-1.609-0.658-2.548v-8.208
			c0-0.274,0.089-0.498,0.263-0.666s0.394-0.252,0.657-0.252c0.273,0,0.496,0.084,0.664,0.252c0.17,0.168,0.254,0.392,0.254,0.666
			v4.86c0.42-0.518,0.93-0.918,1.529-1.206c0.601-0.288,1.248-0.432,1.942-0.432C81.787,20.283,82.57,20.499,83.271,20.931z
			 M82.191,28.212c0.486-0.294,0.871-0.699,1.15-1.216c0.282-0.518,0.426-1.094,0.426-1.729s-0.144-1.208-0.426-1.719
			c-0.279-0.51-0.664-0.912-1.15-1.206c-0.485-0.294-1.028-0.441-1.629-0.441c-0.602,0-1.145,0.147-1.629,0.441
			c-0.485,0.294-0.867,0.696-1.145,1.206s-0.414,1.083-0.414,1.719s0.139,1.212,0.414,1.729c0.275,0.517,0.656,0.922,1.145,1.216
			c0.484,0.294,1.027,0.438,1.629,0.438C81.163,28.651,81.706,28.506,82.191,28.212z"/>
		<path fill="#6627DB" d="M96.871,25.691c-0.155,0.15-0.354,0.227-0.594,0.227h-6.84c0.131,0.841,0.513,1.52,1.143,2.035
			c0.631,0.516,1.4,0.771,2.313,0.771c0.36,0,0.734-0.064,1.125-0.197c0.392-0.133,0.711-0.295,0.963-0.484
			c0.168-0.133,0.367-0.198,0.596-0.198s0.406,0.06,0.54,0.18c0.216,0.183,0.323,0.385,0.323,0.612c0,0.216-0.097,0.396-0.289,0.54
			c-0.406,0.323-0.914,0.588-1.521,0.792s-1.187,0.306-1.737,0.306c-0.982,0-1.865-0.213-2.646-0.639
			c-0.781-0.426-1.39-1.017-1.826-1.772c-0.438-0.757-0.657-1.612-0.657-2.572s0.207-1.821,0.621-2.583
			c0.414-0.764,0.989-1.356,1.729-1.782c0.738-0.426,1.574-0.639,2.512-0.639c0.925,0,1.725,0.202,2.396,0.61
			s1.188,0.979,1.547,1.71c0.359,0.732,0.541,1.572,0.541,2.521C97.105,25.353,97.027,25.542,96.871,25.691z M90.49,22.551
			c-0.547,0.479-0.891,1.122-1.035,1.926h5.994c-0.107-0.804-0.408-1.446-0.899-1.926c-0.491-0.48-1.135-0.72-1.927-0.72
			C91.747,21.831,91.036,22.071,90.49,22.551z"/>
		<path fill="#6627DB" d="M105.764,20.535c0.359,0.19,0.539,0.432,0.539,0.72c0,0.084-0.006,0.144-0.018,0.18
			c-0.107,0.384-0.35,0.576-0.721,0.576c-0.062,0-0.149-0.012-0.271-0.036c-0.479-0.083-0.87-0.126-1.17-0.126
			c-0.864,0-1.561,0.198-2.088,0.594c-0.528,0.396-0.792,0.932-0.792,1.604v5.256c0,0.288-0.075,0.51-0.226,0.666
			c-0.149,0.156-0.377,0.234-0.677,0.234c-0.286,0-0.51-0.075-0.665-0.228c-0.156-0.147-0.234-0.375-0.234-0.675v-8.046
			c0-0.288,0.078-0.51,0.234-0.666c0.155-0.156,0.379-0.234,0.665-0.234c0.601,0,0.9,0.3,0.9,0.9v0.342
			c0.36-0.42,0.804-0.75,1.332-0.99c0.528-0.238,1.092-0.358,1.692-0.358C104.904,20.247,105.402,20.343,105.764,20.535z"/>
		<path fill="#6627DB" d="M114.934,29.589c-0.953-0.528-1.611-1.218-1.971-2.07c-0.061-0.144-0.09-0.264-0.09-0.358
			c0-0.182,0.064-0.34,0.197-0.479c0.132-0.138,0.313-0.229,0.539-0.279c0.037-0.012,0.098-0.018,0.182-0.018
			c0.191,0,0.375,0.057,0.549,0.171s0.303,0.267,0.387,0.459c0.217,0.468,0.644,0.864,1.278,1.188
			c0.636,0.322,1.338,0.483,2.104,0.483c0.899,0,1.662-0.207,2.287-0.62c0.623-0.414,0.937-0.979,0.937-1.699
			c0-0.687-0.265-1.271-0.792-1.757c-0.527-0.484-1.332-0.781-2.412-0.891c-1.488-0.144-2.658-0.579-3.51-1.305
			c-0.854-0.728-1.278-1.637-1.278-2.729c0-0.768,0.22-1.431,0.657-1.988c0.438-0.559,1.037-0.983,1.8-1.277
			s1.617-0.441,2.563-0.441c1.033,0,1.902,0.21,2.611,0.63c0.707,0.42,1.307,1.021,1.799,1.802c0.146,0.228,0.217,0.442,0.217,0.646
			c0,0.264-0.12,0.48-0.359,0.648c-0.133,0.084-0.288,0.126-0.468,0.126c-0.181,0-0.349-0.045-0.505-0.137
			c-0.155-0.09-0.275-0.213-0.359-0.367c-0.324-0.54-0.729-0.951-1.215-1.233s-1.102-0.423-1.846-0.423
			c-0.912,0-1.649,0.177-2.215,0.531c-0.563,0.354-0.847,0.865-0.847,1.539c0,0.623,0.253,1.146,0.757,1.564
			s1.403,0.696,2.699,0.828c1.438,0.144,2.557,0.579,3.35,1.305c0.791,0.728,1.188,1.685,1.188,2.871
			c0,0.864-0.234,1.605-0.702,2.225c-0.468,0.618-1.089,1.079-1.862,1.387c-0.772,0.306-1.604,0.459-2.494,0.459
			C116.945,30.381,115.889,30.117,114.934,29.589z"/>
		<path fill="#6627DB" d="M139.837,16.413c0.181,0.18,0.271,0.4,0.271,0.666v12.186c0,0.265-0.094,0.485-0.278,0.666
			s-0.404,0.271-0.656,0.271c-0.265,0-0.485-0.092-0.666-0.271c-0.181-0.181-0.271-0.401-0.271-0.666v-8.946l-4.354,8.875
			c-0.205,0.313-0.476,0.469-0.812,0.469c-0.396,0-0.684-0.188-0.863-0.56l-4.303-8.622v8.784c0,0.265-0.09,0.485-0.271,0.666
			s-0.401,0.271-0.666,0.271s-0.485-0.092-0.666-0.271c-0.181-0.181-0.271-0.401-0.271-0.666V17.079
			c0-0.266,0.091-0.486,0.271-0.666c0.181-0.182,0.401-0.271,0.666-0.271c0.359,0,0.638,0.168,0.828,0.504l5.347,10.71l5.201-10.71
			c0.191-0.335,0.469-0.504,0.828-0.504C139.436,16.143,139.656,16.233,139.837,16.413z"/>
	</g>
</g>
<g id="Layer_3" display="none">
	
		<text transform="matrix(1 0 0 1 44.4561 30.2004)" display="inline" fill="#6A21F5" font-family="'Comfortaa-Bold'" font-size="18">Amber SM</text>
</g>
</svg>
